<?xml version="1.0" standalone="no"?>
<!DOCTYPE svg PUBLIC "-//W3C//DTD SVG 20010904//EN"
 "http://www.w3.org/TR/2001/REC-SVG-20010904/DTD/svg10.dtd">
<svg version="1.0" xmlns="http://www.w3.org/2000/svg"
 width="640.000000pt" height="640.000000pt" viewBox="0 0 640.000000 640.000000"
 preserveAspectRatio="xMidYMid meet">
<metadata>
Created by potrace 1.14, written by Peter Selinger 2001-2017
</metadata>
<g transform="translate(0.000000,640.000000) scale(0.100000,-0.100000)"
fill="#000000" stroke="none">
<path d="M3405 5693 c-11 -3 -33 -11 -50 -18 -16 -7 -136 -57 -265 -110 -129
-54 -277 -118 -328 -142 -50 -24 -94 -43 -96 -43 -4 0 -72 -32 -326 -152 -198
-94 -230 -109 -232 -106 -2 2 -17 -7 -35 -20 -17 -12 -34 -22 -37 -22 -3 0
-54 -23 -114 -51 -194 -93 -334 -159 -337 -159 -2 0 -46 -20 -99 -45 -53 -25
-99 -45 -101 -45 -2 0 -33 -13 -68 -30 -36 -16 -68 -30 -71 -30 -3 0 -35 -13
-71 -30 -36 -16 -71 -30 -78 -30 -7 0 -17 -4 -23 -9 -5 -5 -72 -32 -149 -60
-77 -29 -147 -55 -155 -58 -8 -3 -21 -7 -29 -9 -40 -8 -143 -69 -189 -114 -38
-36 -64 -52 -90 -56 -135 -19 -286 -160 -364 -339 -68 -153 -90 -267 -93 -465
-4 -259 36 -465 126 -648 51 -102 53 -104 312 -369 293 -297 1647 -1649 1717
-1713 64 -59 155 -107 225 -119 59 -10 488 -9 2320 5 407 3 934 6 1171 8 407
3 433 4 452 22 32 31 43 63 39 107 -6 47 -23 92 -49 122 -9 11 -54 67 -100
125 -46 58 -89 112 -96 120 -53 62 -52 61 -18 103 27 34 31 47 32 105 1 45 8
82 22 113 22 47 22 78 0 133 -10 24 -9 31 1 34 30 10 74 61 90 103 9 24 16 73
16 109 0 55 3 68 23 83 25 21 29 65 10 98 -11 17 -10 22 2 29 43 25 100 72
100 83 0 6 -24 39 -53 71 -28 33 -80 92 -114 130 -35 39 -63 74 -63 77 0 4 27
14 60 23 32 9 62 21 66 27 13 21 -8 75 -42 114 -20 22 -60 66 -90 99 -30 32
-54 62 -54 66 0 7 62 26 111 34 44 7 89 35 89 56 0 25 -18 42 -180 180 -233
197 -337 297 -324 309 5 5 56 27 114 51 58 23 129 53 158 66 29 13 56 24 61
24 5 0 23 16 40 35 50 57 35 75 -204 255 -145 108 -436 332 -485 373 -8 6 -87
68 -175 136 -88 69 -176 138 -195 153 -19 16 -39 32 -45 36 -23 18 -361 284
-375 295 -24 20 -274 216 -364 285 -44 34 -88 68 -96 75 -8 6 -69 53 -135 102
-66 50 -124 94 -130 98 -71 59 -359 269 -397 290 -49 27 -132 41 -173 30z"/>
</g>
</svg>
